Coordinates
version=1
nRows=16
nColumns=33
inDegrees=yes

Units are S.I. units (second, meters, Newtons, ...)
Angles are in degrees.

endheader
time	ground_thorax_rot_x	ground_thorax_rot_y	ground_thorax_rot_z	ground_thorax_tx	ground_thorax_ty	ground_thorax_tz	clav_prot_r	clav_elev_r	scapula_abduction_r	scapula_elevation_r	scapula_upward_rot_r	scapula_winging_r	shoulder_elv_r	plane_of_elev_r	axial_rot_r	elbow_flexion_r	pro_sup_r	wrist_flex_r	wrist_dev_r	clav_prot_l	clav_elev_l	scapula_abduction_l	scapula_elevation_l	scapula_upward_rot_l	scapula_winging_l	shoulder_elv_l	plane_of_elev_l	axial_rot_l	elbow_flexion_l	pro_sup_l	wrist_flex_l	wrist_dev_l
      6.01000000	     36.66217180	     10.41306466	     15.60378441	   -211.13365335	    817.94082043	     -1.17795447	     15.78165529	     37.88420086	     40.22514145	     45.00000000	    -45.00000000	   2793.49028002	  -2448.66951045	     33.32262130	     51.78651696	   1465.24473253	    165.66541763	     12.14729472	      5.13713327	     10.67839613	    -45.00000000	    -37.93333841	     45.00000000	    -42.06811865	  -2782.32983774	   -452.95718191	    135.95787211	   -174.69947476	   2167.77297041	     36.61002083	      4.90131556	    -23.25684218
      6.02000000	     36.72765917	     10.27215444	     15.37512531	   -209.07866456	    818.29624931	     -1.21900506	     16.24062331	     38.15569873	     40.55880308	     45.00000000	    -45.00000000	   2793.47875113	  -2448.67829858	     33.40171838	     51.42524217	   1465.27154355	    166.83481339	     12.04788076	      5.08462320	     10.42985997	    -45.00000000	    -38.23173235	     45.00000000	    -41.23023416	  -2782.52395114	   -453.02281048	    136.14737063	   -174.62229244	   2167.95603186	     35.63718477	      5.11331551	    -23.28697484
      6.03000000	     36.79256607	     10.22573840	     15.29245454	   -206.86654947	    818.62160562	     -1.23578608	     16.38580600	     38.22803138	     40.79763934	     45.00000000	    -45.00000000	   2793.53802471	  -2448.61970015	     33.49330344	     51.01787591	   1465.24308060	    168.09333980	     11.94371054	      5.08728111	     10.38066726	    -45.00000000	    -38.42990981	     45.00000000	    -40.55496766	  -2782.61148322	   -453.03856815	    136.17779879	   -174.61516948	   2168.02469243	     34.59428705	      5.38435632	    -23.29542736
      6.04000000	     36.84826702	     10.22168680	     15.22504127	   -204.49614452	    818.90811234	     -1.22835103	     16.43653313	     38.24298089	     40.99203429	     45.00000000	    -45.00000000	   2793.56657051	  -2448.57398253	     33.63093982	     50.66936001	   1465.18675275	    169.37495878	     11.83832461	      5.10234643	     10.37585150	    -45.00000000	    -38.65309088	     45.00000000	    -39.91923085	  -2782.71090289	   -453.08232545	    136.17154096	   -174.60222578	   2168.04115437	     33.53881441	      5.68788139	    -23.29046062
      6.05000000	     36.88032761	     10.22553233	     15.21036085	   -201.96650983	    819.14652047	     -1.19842687	     16.40168684	     38.30192049	     41.19703333	     45.00000000	    -45.00000000	   2793.64281348	  -2448.49775929	     33.74316087	     50.45710847	   1465.15167809	    170.66815194	     11.72443031	      5.09243536	     10.37919951	    -45.00000000	    -38.87403806	     45.00000000	    -39.23303543	  -2782.78923428	   -453.08739066	    136.20431624	   -174.53098210	   2168.12961934	     32.46433777	      5.98622571	    -23.27517259
      6.06000000	     36.98374909	     10.12915889	     14.95597762	   -199.27654178	    819.32747255	     -1.14862324	     16.43913927	     38.43800464	     41.38948032	     45.00000000	    -44.58275328	   2793.62294097	  -2448.56848263	     33.83630391	     50.36325511	   1465.07429618	    171.97443391	     11.61969936	      5.01638901	     10.37456510	    -45.00000000	    -39.12921102	     45.00000000	    -38.43667752	  -2782.97970841	   -453.15388450	    136.16154013	   -174.41484978	   2168.16134793	     31.40820617	      6.29131804	    -23.23381265
      6.07000000	     37.07765070	     10.06688009	     14.78322763	   -196.41791090	    819.43868204	     -1.08567679	     16.43958173	     38.56822315	     41.50986412	     45.00000000	    -43.99894257	   2793.70473297	  -2448.61159203	     33.81857391	     50.27778025	   1465.01597394	    173.32141705	     11.49574772	      4.96085863	     10.33983893	    -45.00000000	    -39.37403388	     45.00000000	    -37.65137147	  -2783.15940039	   -453.20005370	    136.14587800	   -174.31399805	   2168.22126779	     30.37508930	      6.62160373	    -23.19325628
      6.08000000	     37.18637066	      9.91634208	     14.56410194	   -193.39023686	    819.46914660	     -1.01357162	     16.60492405	     38.77944187	     41.76736126	     45.00000000	    -43.37786479	   2793.75449833	  -2448.72505580	     33.78435686	     50.22937535	   1464.91705539	    174.74255202	     11.36596247	      4.91329287	     10.23622657	    -45.00000000	    -39.63958473	     45.00000000	    -36.61014217	  -2783.31438987	   -453.30050616	    136.19278365	   -174.21669167	   2168.27155084	     29.34522666	      6.99119657	    -23.15210336
      6.09000000	     37.29732159	      9.81593901	     14.28556025	   -190.16410975	    819.39269095	     -0.96096158	     16.61094330	     38.98223191	     41.92805836	     45.00000000	    -42.57921178	   2793.77648607	  -2448.92160277	     33.77407403	     50.15932132	   1464.78618646	    176.05452017	     11.23649515	      4.77661767	     10.21150931	    -45.00000000	    -39.89415190	     45.00000000	    -35.64902352	  -2783.53520679	   -453.41134227	    136.17832018	   -174.13298645	   2168.32209957	     28.41196324	      7.30586775	    -23.06340255
      6.10000000	     37.40806520	      9.72431887	     14.04393870	   -186.75111034	    819.20775616	     -0.91652130	     16.76175029	     39.15856629	     42.12684082	     45.00000000	    -41.88561016	   2793.91663963	  -2449.05938888	     33.65803874	     49.78526155	   1464.65319795	    177.33229298	     11.09107470	      4.65960997	     10.07977064	    -45.00000000	    -40.16004117	     45.00000000	    -34.59568130	  -2783.74812486	   -453.53687984	    136.17350737	   -174.11457834	   2168.31973491	     27.56163550	      7.69707459	    -22.98500430
      6.11000000	     37.50234803	      9.61843549	     13.82431065	   -183.16759699	    818.91606080	     -0.86048088	     16.80421048	     39.33481435	     42.33924626	     45.00000000	    -41.20723724	   2794.00606120	  -2449.23139979	     33.64593299	     49.32655537	   1464.49926789	    178.41856573	     10.95400475	      4.46067426	     10.03878803	    -45.00000000	    -40.44705626	     45.00000000	    -33.60966131	  -2783.95558051	   -453.68425485	    136.20233323	   -174.08058017	   2168.38357989	     26.83592192	      7.99980241	    -22.87031448
      6.12000000	     37.60851090	      9.50193845	     13.54654917	   -179.46262031	    818.53597620	     -0.75023553	     16.86704447	     39.52013842	     42.57593297	     45.00000000	    -40.49508063	   2794.11021228	  -2449.40169333	     33.59111645	     48.92093006	   1464.37160962	    179.40555144	     10.81888839	      4.27510084	      9.96539777	    -45.00000000	    -40.74567488	     45.00000000	    -32.53559408	  -2784.18499521	   -453.83799184	    136.19347527	   -174.00918362	   2168.41183428	     26.24832540	      8.31055543	    -22.74576156
      6.13000000	     37.69536015	      9.37636834	     13.32606492	   -175.64168901	    818.06101862	     -0.58614037	     16.96486755	     39.68618620	     42.80425674	     45.00000000	    -39.88132368	   2794.23037720	  -2449.56261332	     33.60249333	     48.58586525	   1464.24565220	    180.37300665	     10.69196469	      4.12358459	      9.90583175	    -45.00000000	    -41.00724322	     45.00000000	    -31.46405991	  -2784.40186352	   -454.02072073	    136.17971934	   -173.91048293	   2168.41578047	     25.80799252	      8.59738854	    -22.60600499
      6.14000000	     37.78429718	      9.23256234	     13.05115336	   -171.72833310	    817.49647482	     -0.35759248	     17.02642038	     39.86873518	     43.05393063	     45.00000000	    -39.24975717	   2794.32542423	  -2449.71922659	     33.61263276	     48.54459082	   1464.16558033	    181.42114199	     10.56518448	      4.01289789	      9.84919212	    -45.00000000	    -41.34673517	     45.00000000	    -30.36068791	  -2784.63427165	   -454.19725874	    136.16347697	   -173.75296458	   2168.43938689	     25.51097996	      8.86089187	    -22.46375584
      6.15000000	     37.85099446	      9.08799555	     12.78635651	   -167.71490209	    816.82622887	     -0.08902451	     17.07553190	     40.05621110	     43.27426343	     45.00000000	    -38.55630436	   2794.45193967	  -2449.88242516	     33.61555545	     48.72496722	   1464.09347148	    182.63662907	     10.43752096	      3.94848181	      9.78930175	    -45.00000000	    -41.68034760	     45.00000000	    -29.24143322	  -2784.86660691	   -454.36320086	    136.14384083	   -173.49613099	   2168.45715833	     25.36187335	      9.12522091	    -22.32640356
      6.16000000	     37.92919190	      8.96716776	     12.51659106	   -163.59197755	    816.03530377	      0.19061756	     17.12098311	     40.26394828	     43.48941349	     45.00000000	    -37.93336489	   2794.55279512	  -2450.04514822	     33.64954946	     49.08482301	   1463.97761437	    183.99232571	     10.31426979	      3.88417186	      9.74293650	    -45.00000000	    -42.05142182	     45.00000000	    -28.19863716	  -2785.15264573	   -454.54524643	    136.13042534	   -173.17061498	   2168.47053915	     25.34471191	      9.33439835	    -22.18011907
